<?xml version="1.0" encoding="UTF-8" standalone="no"?>
<svg
   height="16px"
   viewBox="0 0 16 16"
   width="16px"
   version="1.1"
   id="svg1"
   sodipodi:docname="month-symbolic.svg"
   inkscape:version="1.4.4 (dcaf3e7d9e, 2026-05-05)"
   xmlns:inkscape="http://www.inkscape.org/namespaces/inkscape"
   xmlns:sodipodi="http://sodipodi.sourceforge.net/DTD/sodipodi-0.dtd"
   xmlns="http://www.w3.org/2000/svg"
   xmlns:svg="http://www.w3.org/2000/svg">
  <sodipodi:namedview
     id="namedview1"
     pagecolor="#ffffff"
     bordercolor="#000000"
     borderopacity="0.25"
     inkscape:showpageshadow="2"
     inkscape:pageopacity="0.0"
     inkscape:pagecheckerboard="0"
     inkscape:deskcolor="#d1d1d1"
     inkscape:zoom="10.699157"
     inkscape:cx="35.283154"
     inkscape:cy="10.655045"
     inkscape:window-width="1536"
     inkscape:window-height="795"
     inkscape:window-x="0"
     inkscape:window-y="0"
     inkscape:window-maximized="1"
     inkscape:current-layer="svg1"
     showgrid="true">
    <inkscape:grid
       id="grid1"
       units="px"
       originx="0"
       originy="0"
       spacingx="1"
       spacingy="1"
       empcolor="#0099e5"
       empopacity="0.30196078"
       color="#0099e5"
       opacity="0.14901961"
       empspacing="5"
       enabled="true"
       visible="true" />
  </sodipodi:namedview>
  <defs
     id="defs1" />
  <path
     id="rect85"
     style="baseline-shift:baseline;display:inline;overflow:visible;vector-effect:none;stroke-miterlimit:2;enable-background:accumulate;stop-color:#000000;stop-opacity:1;opacity:0.993732"
     d="M 3 1 C 1.3552972 1 0 2.3552972 0 4 L 0 12 C 0 13.644703 1.3552972 15 3 15 L 13 15 C 14.644703 15 16 13.644703 16 12 L 16 4 C 16 2.3552972 14.644703 1 13 1 L 3 1 z M 3 3 L 5 3 L 5 7 L 2 7 L 2 4 C 2 3.4287028 2.4287028 3 3 3 z M 7 3 L 9 3 L 9 7 L 7 7 L 7 3 z M 11 3 L 13 3 C 13.571297 3 14 3.4287028 14 4 L 14 7 L 11 7 L 11 3 z M 2 9 L 5 9 L 5 13 L 3 13 C 2.4287028 13 2 12.571297 2 12 L 2 9 z M 7 9 L 9 9 L 9 13 L 7 13 L 7 9 z M 11 9 L 14 9 L 14 12 C 14 12.571297 13.571297 13 13 13 L 11 13 L 11 9 z " />
</svg>
